<svg width="1500" height="358" viewBox="0 0 1500 358" fill="none" xmlns="http://www.w3.org/2000/svg">
<g clip-path="url(#clip0_1349_579)">
<path d="M136.683 -0.03125H316.871C338.117 -0.03125 355.333 17.1851 355.333 38.4313V223.424C355.333 233.629 351.28 243.406 344.067 250.619L247.922 346.764C240.709 353.976 230.927 358.029 220.726 358.031H52.9743C31.7281 358.031 14.5117 340.814 14.5117 319.568V165.658C14.5117 158.147 16.7174 150.791 20.8427 144.519L104.552 17.2924C108.053 11.9691 112.823 7.5992 118.431 4.5754C124.04 1.55159 130.312 -0.0313782 136.683 -0.03125Z" fill="url(#paint0_linear_1349_579)"/>
<path d="M426.844 172.183V35.6367H463.467C472.746 35.6367 481.174 37.0457 488.751 39.8635C496.311 42.6642 502.351 47.5439 506.87 54.5027C511.371 61.4615 513.622 71.1092 513.622 83.446C513.622 92.3807 511.921 100.817 508.519 108.755C505.134 116.693 499.799 123.145 492.514 128.111C485.229 133.059 475.813 135.534 464.266 135.534H452.101V172.183H426.844ZM461.895 55.4305H452.101V114.967H462.488C471.114 114.967 477.583 112.389 481.895 107.235C486.191 102.08 488.339 94.6058 488.339 84.812C488.339 74.8292 486.38 67.4323 482.462 62.6213C478.545 57.8274 471.689 55.4305 461.895 55.4305Z" fill="black"/>
<path d="M527.719 172.182V74.6309H549.858L551.018 91.8731C552.066 89.313 553.681 86.5982 555.863 83.7288C558.062 80.8594 561.104 78.4281 564.987 76.435C568.87 74.4419 573.879 73.4453 580.013 73.4453C581.903 73.4453 583.569 73.5742 585.013 73.8319C586.456 74.1068 587.796 74.502 589.033 75.0175L583.544 100.688C581.447 98.5914 578.251 97.5432 573.956 97.5432C568.922 97.5432 564.806 98.5742 561.61 100.636C558.415 102.681 556.043 104.983 554.497 107.543C552.968 110.086 552.203 112.045 552.203 113.42V172.182H527.719Z" fill="black"/>
<path d="M637.411 174.141C623.047 174.141 611.947 169.631 604.112 160.61C596.277 151.606 592.359 139.141 592.359 123.213C592.359 107.148 596.406 94.6391 604.499 85.6872C612.591 76.7525 623.82 72.2852 638.184 72.2852C652.617 72.2852 663.605 76.8986 671.148 86.1254C678.691 95.3693 682.462 107.732 682.462 123.213C682.462 138.677 678.562 151.031 670.761 160.275C662.961 169.519 651.844 174.141 637.411 174.141ZM637.798 154.553C650.203 154.553 656.406 144.106 656.406 123.213C656.406 102.182 650.203 91.6666 637.798 91.6666C631.663 91.6666 626.895 94.0979 623.493 98.9604C620.109 103.823 618.416 111.907 618.416 123.213C618.416 134.433 620.109 142.457 623.493 147.285C626.895 152.131 631.663 154.553 637.798 154.553Z" fill="black"/>
<path d="M699.988 172.182V74.6305H722.514L723.107 87.5429C725.65 83.6254 729.189 80.103 733.725 76.9759C738.261 73.8487 744.318 72.2852 751.895 72.2852C758.493 72.2852 763.983 73.7542 768.365 76.6924C772.729 79.6305 776.019 83.7714 778.236 89.1151C780.727 85.0085 784.301 81.1769 788.957 77.6202C793.631 74.0635 800.152 72.2852 808.519 72.2852C818.313 72.2852 825.624 75.4123 830.452 81.6666C835.28 87.9381 837.694 96.6236 837.694 107.723V172.182H812.823V110.275C812.823 104.862 811.775 100.472 809.679 97.1047C807.6 93.737 804.206 92.0532 799.499 92.0532C794.928 92.0532 790.779 93.737 787.05 97.1047C783.339 100.472 781.483 104.862 781.483 110.275V172.182H756.406V110.275C756.406 104.862 755.212 100.404 752.823 96.8986C750.452 93.4106 746.947 91.6666 742.308 91.6666C737.6 91.6666 733.554 93.4106 730.169 96.8986C726.767 100.404 725.066 104.862 725.066 110.275V172.182H699.988Z" fill="black"/>
<path d="M858.262 214.864V74.6316H881.561V77.7502L879.602 91.4615C880.392 87.7502 882.171 84.4254 884.937 81.4873C887.72 78.5492 891.123 76.2467 895.143 74.5801C899.147 72.9134 903.373 72.0801 907.824 72.0801C920.745 72.0801 930.178 76.599 936.123 85.6368C942.068 94.6918 945.04 106.822 945.04 122.029C945.04 139.073 941.432 152.149 934.215 161.255C926.999 170.362 917.549 174.915 905.865 174.915C898.614 174.915 892.815 172.664 888.468 168.163C884.138 163.661 881.183 158.532 879.602 152.776L881.973 171.204V214.864H858.262ZM900.169 155.534C903.313 155.534 906.355 154.468 909.293 152.338C912.231 150.224 914.645 146.779 916.535 142.003C918.425 137.243 919.37 130.912 919.37 123.008C919.37 112.046 917.497 104.142 913.751 99.2966C909.989 94.4684 905.598 92.0543 900.581 92.0543C894.499 92.0543 889.877 95.1729 886.715 101.41C883.554 107.647 881.973 115.37 881.973 124.58C881.973 133.79 883.588 141.247 886.818 146.951C890.049 152.673 894.499 155.534 900.169 155.534Z" fill="black"/>
<path d="M996.147 175.121C985.116 175.121 977.659 172.243 973.775 166.487C969.892 160.748 967.951 152.063 967.951 140.43V95.1983H955.219V74.6313H968.93L970.296 54.0643L991.662 44.8633V74.6313H1015.73V95.1983H991.662V139.863C991.662 145.533 992.461 149.46 994.059 151.642C995.657 153.841 997.856 154.941 1000.66 154.941C1003.53 154.941 1006.57 154.185 1009.78 152.673C1012.98 151.178 1015.49 149.649 1017.31 148.085L1022.02 167.853C1020 169.296 1017.37 170.559 1014.14 171.642C1010.91 172.707 1007.64 173.549 1004.34 174.167C1001.04 174.803 998.312 175.121 996.147 175.121Z" fill="black"/>
<path d="M1064.91 173.935C1057.8 173.935 1051.97 173.265 1047.44 171.924C1042.9 170.584 1039.37 169.046 1036.85 167.311C1034.34 165.593 1032.59 164.141 1031.61 162.955L1038.86 144.347C1041.72 146.701 1045.4 149.021 1049.89 151.306C1054.35 153.591 1059.56 154.734 1065.51 154.734C1070.14 154.734 1073.39 153.789 1075.25 151.899C1077.1 150.009 1078.03 147.955 1078.03 145.739C1078.03 142.663 1075.91 139.888 1071.66 137.414C1067.42 134.923 1062.49 132.474 1056.87 130.069C1053.55 128.625 1050.03 126.796 1046.3 124.579C1042.58 122.363 1039.39 119.424 1036.74 115.765C1034.11 112.105 1032.8 107.406 1032.8 101.667C1032.8 92.8523 1036.01 85.8162 1042.44 80.5585C1048.86 75.3007 1057.99 72.6719 1069.81 72.6719C1077.39 72.6719 1083.8 73.7973 1089.06 76.0482C1094.32 78.299 1097.82 80.3093 1099.58 82.0791L1092.93 99.708C1090.38 97.7492 1087.15 95.8849 1083.24 94.1152C1079.32 92.3454 1075.1 91.4605 1070.58 91.4605C1065.63 91.4605 1062.18 92.1135 1060.22 93.4193C1058.26 94.7251 1057.28 96.8214 1057.28 99.708C1057.28 102.904 1059.03 105.524 1062.52 107.569C1066 109.631 1070.2 111.641 1075.09 113.6C1083.25 116.796 1089.83 120.73 1094.83 125.404C1099.83 130.077 1102.33 136.005 1102.33 143.187C1102.33 148.531 1101.09 153.54 1098.6 158.213C1096.12 162.887 1092.15 166.675 1086.66 169.579C1081.17 172.483 1073.92 173.935 1064.91 173.935Z" fill="black"/>
<path d="M1119.86 172.182V74.6305H1142.39L1142.98 87.5429C1145.52 83.6254 1149.06 80.103 1153.6 76.9759C1158.13 73.8487 1164.19 72.2852 1171.77 72.2852C1178.36 72.2852 1183.85 73.7542 1188.21 76.6924C1192.59 79.6305 1195.89 83.7714 1198.11 89.1151C1200.58 85.0085 1204.15 81.1769 1208.83 77.6202C1213.5 74.0635 1220.01 72.2852 1228.36 72.2852C1238.16 72.2852 1245.47 75.4123 1250.3 81.6666C1255.14 87.9381 1257.57 96.6236 1257.57 107.723V172.182H1232.67V110.275C1232.67 104.862 1231.63 100.472 1229.55 97.1047C1227.45 93.737 1224.06 92.0532 1219.37 92.0532C1214.8 92.0532 1210.65 93.737 1206.92 97.1047C1203.19 100.472 1201.33 104.862 1201.33 110.275V172.182H1176.28V110.275C1176.28 104.862 1175.08 100.404 1172.69 96.8986C1170.31 93.4106 1166.79 91.6666 1162.15 91.6666C1157.46 91.6666 1153.42 93.4106 1150.01 96.8986C1146.63 100.404 1144.94 104.862 1144.94 110.275V172.182H1119.86Z" fill="black"/>
<path d="M1277.05 58.754V32.6973H1304.47V58.754H1277.05ZM1278.03 172.182V74.6303H1303.49V172.182H1278.03Z" fill="black"/>
<path d="M1360.48 175.121C1349.45 175.121 1341.99 172.243 1338.11 166.487C1334.22 160.748 1332.28 152.063 1332.28 140.43V95.1983H1319.55V74.6313H1333.26L1334.63 54.0643L1355.99 44.8633V74.6313H1380.07V95.1983H1355.99V139.863C1355.99 145.533 1356.79 149.46 1358.39 151.642C1359.99 153.841 1362.19 154.941 1364.99 154.941C1367.86 154.941 1370.9 154.185 1374.11 152.673C1377.31 151.178 1379.82 149.649 1381.64 148.085L1386.35 167.853C1384.33 169.296 1381.7 170.559 1378.47 171.642C1375.24 172.707 1371.97 173.549 1368.67 174.167C1365.38 174.803 1362.64 175.121 1360.48 175.121Z" fill="black"/>
<path d="M1401.43 172.183V22.9043H1424.55V72.2857L1424.06 86.9765C1426.67 83.1792 1430.32 79.7772 1435.01 76.7703C1439.72 73.7806 1445.96 72.2857 1453.72 72.2857C1463.52 72.2857 1470.83 75.4129 1475.66 81.6672C1480.48 87.9387 1482.9 96.6242 1482.9 107.724V172.183H1457.85V110.275C1457.85 104.863 1456.55 100.473 1453.96 97.1053C1451.38 93.7376 1447.78 92.0538 1443.16 92.0538C1438.59 92.0538 1434.51 93.7376 1430.91 97.1053C1427.32 100.473 1425.53 104.863 1425.53 110.275V172.183H1401.43Z" fill="black"/>
<path d="M428.699 338.187V201.641H453.777V338.187H428.699Z" fill="black"/>
<path d="M511.562 340.92C503.658 340.92 496.803 338.798 490.995 334.554C485.188 330.31 480.694 324.339 477.516 316.642C474.354 308.927 472.773 299.915 472.773 289.606C472.773 273.54 476.055 260.972 482.619 251.9C489.182 242.827 498.959 238.291 511.949 238.291C518.615 238.291 524.251 239.932 528.856 243.214C533.461 246.513 536.442 251.264 537.799 257.467L536.047 243.188V189.322H559.165V338.188H537.799V318.188C536.047 324.924 532.945 330.396 528.495 334.606C524.062 338.815 518.418 340.92 511.562 340.92ZM517.232 321.539C521.94 321.539 526.158 319.073 529.887 314.142C533.598 309.211 535.454 301.161 535.454 289.992C535.454 279.803 534.019 271.934 531.15 266.384C528.28 260.834 523.839 258.059 517.825 258.059C514.767 258.059 511.717 259.004 508.675 260.894C505.634 262.802 503.1 266.049 501.072 270.637C499.062 275.242 498.057 281.565 498.057 289.606C498.057 300.379 499.913 308.394 503.624 313.652C507.352 318.91 511.889 321.539 517.232 321.539Z" fill="black"/>
<path d="M622.618 340.714C611.656 340.714 602.807 338.411 596.071 333.806C589.353 329.219 584.456 323.119 581.381 315.508C578.322 307.896 576.793 299.588 576.793 290.585C576.793 281.117 578.537 272.415 582.025 264.477C585.513 256.538 590.642 250.19 597.412 245.43C604.164 240.671 612.437 238.291 622.231 238.291C636.853 238.291 647.068 242.518 652.875 250.971C658.7 259.425 661.613 271.384 661.613 286.848C661.613 288.222 661.578 289.958 661.509 292.054C661.441 294.133 661.338 295.928 661.2 297.441H602.437C602.833 305.138 605.006 311.178 608.958 315.559C612.91 319.923 618.838 322.105 626.741 322.105C630.779 322.105 635.118 321.212 639.757 319.425C644.396 317.621 647.824 315.447 650.04 312.904L657.875 331.513C655.264 333.282 651.131 335.258 645.479 337.441C639.843 339.623 632.223 340.714 622.618 340.714ZM602.257 282.157H636.716C636.716 275.301 636.114 270.061 634.912 266.435C633.709 262.81 632.059 260.31 629.963 258.935C627.884 257.578 625.504 256.899 622.824 256.899C616.157 256.899 611.157 259.356 607.824 264.27C604.508 269.202 602.652 275.164 602.257 282.157Z" fill="black"/>
<path d="M273.069 98.8719C273.069 104.181 272.416 108.923 271.11 113.099C269.787 117.257 268.008 120.934 265.775 124.13C263.541 127.308 260.972 130.032 258.069 132.3C255.148 134.568 252.089 136.415 248.893 137.841C245.715 139.267 242.502 140.307 239.254 140.96C236.007 141.612 232.948 141.939 230.079 141.939H177.553V118.717H230.079C233.069 118.477 235.766 117.867 238.172 116.887C240.594 115.908 242.665 114.585 244.383 112.918C246.118 111.252 247.459 109.241 248.404 106.887C249.366 104.533 249.847 101.862 249.847 98.8719V88.3307C249.538 85.4097 248.911 82.7293 247.965 80.2894C247.003 77.8496 245.706 75.7705 244.074 74.0523C242.441 72.3169 240.457 70.9595 238.12 69.9802C235.801 69.0008 233.12 68.5111 230.079 68.5111H177.734C174.641 68.5111 172.287 69.3101 170.672 70.908C169.057 72.5231 168.249 74.8513 168.249 77.8925V173.408H145.027V77.8925C145.027 71.9303 146.118 66.8616 148.301 62.6864C150.465 58.5283 153.172 55.1606 156.419 52.5833C159.667 50.0231 163.197 48.1675 167.012 47.0163C170.826 45.8479 174.34 45.2637 177.553 45.2637H230.079C235.337 45.2637 240.045 45.9338 244.203 47.274C248.378 48.6142 252.055 50.4011 255.234 52.6348C258.429 54.8685 261.144 57.4458 263.378 60.3668C265.612 63.2877 267.459 66.3376 268.919 69.5163C270.38 72.7121 271.436 75.9338 272.089 79.1812C272.742 82.4286 273.069 85.4785 273.069 88.3307V98.8719Z" fill="white"/>
<path d="M308.995 173.408H285.773V45.2637H308.995V173.408Z" fill="white"/>
</g>
<defs>
<linearGradient id="paint0_linear_1349_579" x1="14.5117" y1="-0.03125" x2="355.333" y2="-0.03125" gradientUnits="userSpaceOnUse">
<stop stop-color="#FFA62E"/>
<stop offset="1" stop-color="#F71B3D"/>
</linearGradient>
<clipPath id="clip0_1349_579">
<rect width="1500" height="358" fill="white"/>
</clipPath>
</defs>
</svg>
