<svg width="400" height="400" viewBox="0 0 400 400" fill="none" xmlns="http://www.w3.org/2000/svg">
<g clip-path="url(#clip0_1351_644)">
<path fill-rule="evenodd" clip-rule="evenodd" d="M129.6 238.4C140.267 238.4 161.6 237.867 191.467 225.6C226.133 211.2 294.4 185.6 344 158.933C378.667 140.267 393.6 115.733 393.6 82.6667C393.6 37.3333 356.8 0 310.933 0H118.933C53.3333 0 0 53.3333 0 118.933C0 184.533 50.1333 238.4 129.6 238.4Z" fill="#39594D"/>
<path fill-rule="evenodd" clip-rule="evenodd" d="M162.133 319.999C162.133 287.999 181.333 258.666 211.199 246.399L271.466 221.333C332.799 196.266 399.999 241.066 399.999 307.199C399.999 358.399 358.399 399.999 307.199 399.999H241.599C197.866 399.999 162.133 364.266 162.133 319.999Z" fill="#D18EE2"/>
<path d="M68.8 253.867C30.9333 253.867 0 284.801 0 322.667V331.734C0 369.067 30.9333 400.001 68.8 400.001C106.667 400.001 137.6 369.067 137.6 331.201V322.134C137.067 284.801 106.667 253.867 68.8 253.867Z" fill="#FF7759"/>
</g>
<defs>
<clipPath id="clip0_1351_644">
<rect width="400" height="400" fill="white"/>
</clipPath>
</defs>
</svg>
