<svg width="544" height="400" viewBox="0 0 544 400" fill="none" xmlns="http://www.w3.org/2000/svg">
<path d="M538.293 33.5723C532.531 30.7511 530.049 36.1274 526.679 38.8586C525.527 39.7396 524.552 40.8847 523.576 41.9418C515.154 50.9283 505.314 56.8336 492.459 56.1276C473.665 55.0696 457.619 60.9749 443.434 75.3377C440.42 57.6267 430.402 47.0511 415.154 40.2677C407.176 36.7425 399.108 33.2173 393.522 25.5509C389.622 20.0895 388.558 14.0092 386.608 8.01684C385.366 4.40461 384.125 0.702445 379.958 0.0854168C375.437 -0.618653 373.663 3.16862 371.89 6.34274C364.798 19.2965 362.05 33.5713 362.315 48.0221C362.936 80.538 376.678 106.442 403.982 124.86C407.085 126.975 407.883 129.088 406.908 132.174C405.046 138.518 402.829 144.686 400.88 151.03C399.638 155.084 397.775 155.965 393.432 154.201C378.45 147.947 365.506 138.693 354.07 127.504C334.655 108.735 317.101 88.0274 295.205 71.8135C290.063 68.0243 284.921 64.501 279.601 61.1509C257.26 39.4756 282.527 21.6746 288.378 19.5615C294.495 17.3583 290.506 9.77895 270.736 9.86889C250.966 9.95593 232.881 16.5653 209.832 25.3768C206.463 26.6989 202.916 27.667 199.281 28.46C178.359 24.4957 156.639 23.6128 133.944 26.1698C91.2129 30.9272 57.0827 51.1063 31.994 85.5602C1.85265 126.975 -5.23936 174.027 3.44877 223.109C12.5802 274.832 38.9979 317.657 79.6016 351.143C121.712 385.859 170.206 402.866 225.525 399.605C259.124 397.667 296.536 393.174 338.735 357.487C349.372 362.774 360.543 364.887 379.072 366.473C393.345 367.796 407.087 365.769 417.725 363.567C434.391 360.042 433.239 344.621 427.211 341.802C378.364 319.069 389.089 328.32 379.338 320.83C404.161 291.488 441.573 260.998 456.201 162.22C457.353 154.378 456.378 149.443 456.201 143.099C456.112 139.222 456.998 137.725 461.431 137.283C473.665 135.873 485.544 132.526 496.449 126.534C528.098 109.264 540.864 80.89 543.878 46.877C544.322 41.6778 543.79 36.3015 538.293 33.5723ZM262.493 339.686C215.152 302.503 192.192 290.253 182.705 290.782C173.84 291.311 175.436 301.445 177.386 308.054C179.425 314.573 182.085 319.069 185.808 324.795C188.378 328.584 190.153 334.223 183.238 338.454C167.989 347.882 141.481 335.281 140.239 334.665C109.39 316.512 83.5914 292.543 65.4166 259.766C47.8632 228.219 37.669 194.384 35.9838 158.255C35.5405 149.533 38.1113 146.447 46.7994 144.863C58.2355 142.748 70.0268 142.306 81.4629 143.98C129.78 151.03 170.914 172.618 205.4 206.807C225.08 226.28 239.974 249.545 255.312 272.278C271.623 296.42 289.177 319.421 311.517 338.277C319.407 344.885 325.702 349.907 331.73 353.61C313.557 355.636 283.237 356.078 262.493 339.686ZM285.188 193.855C285.188 189.977 288.291 186.894 292.193 186.894C293.079 186.894 293.877 187.068 294.586 187.332C295.562 187.686 296.449 188.215 297.157 189.006C298.399 190.241 299.108 192.002 299.108 193.854C299.108 197.731 296.005 200.814 292.106 200.814C288.206 200.814 285.188 197.732 285.188 193.855ZM355.668 229.983C351.146 231.834 346.625 233.418 342.281 233.595C335.543 233.947 328.185 231.215 324.196 227.866C317.991 222.667 313.558 219.761 311.697 210.684C310.898 206.807 311.341 200.815 312.052 197.38C313.647 189.977 311.874 185.22 306.644 180.901C302.388 177.376 296.98 176.407 291.04 176.407C288.823 176.407 286.786 175.437 285.278 174.644C282.795 173.411 280.758 170.327 282.707 166.538C283.328 165.306 286.343 162.309 287.052 161.781C295.12 157.197 304.428 158.696 313.027 162.133C321.007 165.393 327.035 171.385 335.723 179.844C344.588 190.064 346.183 192.886 351.236 200.551C355.227 206.543 358.862 212.711 361.344 219.761C362.851 224.167 360.898 227.779 355.668 229.983Z" fill="#4D6BFE"/>
</svg>
