<svg width="567" height="400" viewBox="0 0 567 400" fill="none" xmlns="http://www.w3.org/2000/svg">
<path d="M160.803 0H80.3984V79.6615H160.803V0Z" fill="#FFD800"/>
<path d="M482.459 0H402.055V79.6615H482.459V0Z" fill="#FFD800"/>
<path d="M241.207 79.6523H80.3984V159.314H241.207V79.6523Z" fill="#FFAF00"/>
<path d="M482.464 79.6523H321.656V159.314H482.464V79.6523Z" fill="#FFAF00"/>
<path d="M482.467 159.311H80.3984V238.968H482.467V159.311Z" fill="#FF8205"/>
<path d="M160.803 238.988H80.3984V318.65H160.803V238.988Z" fill="#FA500F"/>
<path d="M321.635 238.988H241.23V318.65H321.635V238.988Z" fill="#FA500F"/>
<path d="M482.459 238.988H402.055V318.65H482.459V238.988Z" fill="#FA500F"/>
<path d="M241.261 318.699H0V398.361H241.261V318.699Z" fill="#E10500"/>
<path d="M562.917 318.699H321.656V398.361H562.917V318.699Z" fill="#E10500"/>
</svg>
