<svg width="396" height="400" viewBox="0 0 396 400" fill="none" xmlns="http://www.w3.org/2000/svg">
<path d="M369.082 163.716C378.164 136.478 375.037 106.64 360.513 81.8642C338.671 43.8633 294.761 24.3129 251.877 33.5131C232.8 12.0377 205.391 -0.175102 176.656 -9.77948e-05C132.821 -0.1001 93.928 28.1005 80.4424 69.7764C52.2827 75.539 27.9761 93.1519 13.7524 118.115C-8.25244 156.016 -3.23599 203.792 26.1621 236.292C17.08 263.531 20.2075 293.369 34.7314 318.144C56.5736 356.145 100.483 375.695 143.367 366.495C162.432 387.971 189.853 400.183 218.589 399.996C262.448 400.108 301.354 371.883 314.839 330.169C342.999 324.407 367.306 306.794 381.529 281.831C403.509 243.93 398.48 196.192 369.094 163.691L369.082 163.716ZM218.614 373.858C201.062 373.883 184.061 367.745 170.588 356.508C171.201 356.183 172.265 355.595 172.953 355.17L252.665 309.169C256.744 306.856 259.246 302.519 259.221 297.831V185.541L292.91 204.979C293.272 205.154 293.51 205.504 293.56 205.904V298.894C293.51 340.245 259.996 373.77 218.614 373.858ZM57.4367 305.069C48.6423 289.894 45.4773 272.106 48.4922 254.843C49.0802 255.193 50.1185 255.83 50.8566 256.255L130.569 302.256C134.61 304.619 139.614 304.619 143.667 302.256L240.981 246.105V284.981C241.006 285.381 240.819 285.768 240.506 286.019L159.93 332.507C124.039 353.157 78.2031 340.882 57.4493 305.069H57.4367ZM36.4577 131.203C45.2146 116.002 59.038 104.377 75.501 98.3395C75.501 99.027 75.4634 100.24 75.4634 101.09V193.104C75.4384 197.779 77.9404 202.117 82.0061 204.429L179.32 260.568L145.631 280.006C145.293 280.231 144.868 280.268 144.493 280.106L63.9043 233.58C28.0887 212.854 15.804 167.066 36.4452 131.215L36.4577 131.203ZM313.251 195.567L215.936 139.415L249.625 119.99C249.963 119.765 250.389 119.727 250.764 119.89L331.352 166.378C367.231 187.091 379.528 232.955 358.799 268.806C350.029 283.981 336.219 295.606 319.768 301.656V206.892C319.806 202.217 317.316 197.892 313.263 195.567H313.251ZM346.777 145.141C346.189 144.778 345.151 144.153 344.413 143.728L264.7 97.727C260.659 95.3644 255.655 95.3644 251.602 97.727L154.288 153.878V115.002C154.263 114.602 154.451 114.215 154.763 113.965L235.339 67.5138C271.23 46.8259 317.116 59.1387 337.807 95.0144C346.552 110.165 349.717 127.903 346.752 145.141H346.777ZM135.974 214.429L102.272 194.992C101.909 194.817 101.672 194.467 101.622 194.067V101.077C101.647 59.6762 135.26 26.1255 176.693 26.1505C194.219 26.1505 211.183 32.3006 224.656 43.5008C224.043 43.8258 222.992 44.4133 222.291 44.8384L142.579 90.8393C138.501 93.1519 135.999 97.477 136.024 102.165L135.974 214.404V214.429ZM154.275 175.004L197.622 149.991L240.969 174.991V225.005L197.622 250.005L154.275 225.005V175.004Z" fill="black"/>
</svg>
