<svg width="322" height="412" viewBox="0 0 322 412" fill="none" xmlns="http://www.w3.org/2000/svg">
<path d="M266.667 24.5333L161.011 130.133H266.667V24.5333ZM266.667 24.5333V53.4444M160.766 9V409M266.667 235.711L161.011 130.111M266.667 235.711V387.1L161.011 281.5M266.667 235.711L161 130.111M266.667 235.711L266.655 280.889H312V130.111H161M161.011 130.111V281.5M161.011 130.111L55.3445 235.711M161.011 281.5L55.3445 387.1V235.711M55.3445 235.711L55.3334 280.889H10V130.111H161M55.3445 235.711L161 130.111M161 130.133L55.3334 24.5333V130.133H161Z" stroke="#20808D" stroke-width="20" stroke-miterlimit="10"/>
</svg>
